<svg version="1.1" xmlns="http://www.w3.org/2000/svg"
xmlns:xlink="http://www.w3.org/1999/xlink">
<path id="heart" d="M295.706,35.522C295.706,35.522,295.706,35.522,295.706,35.522c-34.43-0.184-67.161,14.937-89.339,41.273
			c-22.039-26.516-54.861-41.68-89.339-41.273C52.395,35.522,0,87.917,0,152.55C0,263.31,193.306,371.456,201.143,375.636
			c3.162,2.113,7.286,2.113,10.449,0c7.837-4.18,201.143-110.759,201.143-223.086C412.735,87.917,360.339,35.522,295.706,35.522z
			 M206.367,354.738C176.065,336.975,20.898,242.412,20.898,152.55c0-53.091,43.039-96.131,96.131-96.131
			c32.512-0.427,62.938,15.972,80.457,43.363c3.557,4.905,10.418,5.998,15.323,2.44c0.937-0.68,1.761-1.503,2.44-2.44
			c29.055-44.435,88.631-56.903,133.066-27.848c27.202,17.787,43.575,48.114,43.521,80.615
			C391.837,243.456,236.669,337.497,206.367,354.738z"/>
 <path id="cart"
                d="M512,204.69a51.27,51.27,0,0,0-51.2-51.22H427.7L287.18,12.9a44.12,44.12,0,0,0-62.36,0L84.3,153.47H51.2a51.21,51.21,0,0,0-24.55,96.15L66.76,450.23A77,77,0,0,0,142.07,512H369.93a77,77,0,0,0,75.31-61.76l40.11-200.62A51.26,51.26,0,0,0,512,204.69ZM242.92,31a18.52,18.52,0,0,1,26.16,0L391.5,153.47h-271ZM51.2,179.08H460.8a25.61,25.61,0,0,1,0,51.22H51.2a25.61,25.61,0,0,1,0-51.22ZM420.14,445.22a51.34,51.34,0,0,1-50.21,41.17H142.07a51.34,51.34,0,0,1-50.21-41.18L54,255.91H458ZM243.2,409.56V332.74a12.8,12.8,0,1,1,25.6,0v76.83a12.8,12.8,0,1,1-25.6,0Zm-64,0V332.74a12.8,12.8,0,1,1,25.6,0v76.83a12.8,12.8,0,1,1-25.6,0Zm128,0V332.74a12.8,12.8,0,1,1,25.6,0v76.83a12.8,12.8,0,1,1-25.6,0Z" />            
          <path id="loupe" d="M505.749,475.587l-145.6-145.6c28.203-34.837,45.184-79.104,45.184-127.317c0-111.744-90.923-202.667-202.667-202.667
			S0,90.925,0,202.669s90.923,202.667,202.667,202.667c48.213,0,92.48-16.981,127.317-45.184l145.6,145.6
			c4.16,4.16,9.621,6.251,15.083,6.251s10.923-2.091,15.083-6.251C514.091,497.411,514.091,483.928,505.749,475.587z
			 M202.667,362.669c-88.235,0-160-71.765-160-160s71.765-160,160-160s160,71.765,160,160S290.901,362.669,202.667,362.669z"/>
           
            </svg>